<mxfile host="65bd71144e">
    <diagram id="m9e5_AxYk2Y15cNEP2ss" name="第 1 页">
        <mxGraphModel dx="847" dy="536" grid="1" gridSize="10" guides="1" tooltips="1" connect="1" arrows="1" fold="1" page="1" pageScale="1" pageWidth="827" pageHeight="1169" background="#ffffff" math="0" shadow="0">
            <root>
                <mxCell id="0"/>
                <mxCell id="1" parent="0"/>
                <mxCell id="2" value="网络线程" style="rounded=0;whiteSpace=wrap;html=1;fillColor=#FFCC99;fontColor=#000000;strokeColor=#FFB366;" parent="1" vertex="1">
                    <mxGeometry x="70" y="130" width="110" height="60" as="geometry"/>
                </mxCell>
                <mxCell id="8" value="" style="rounded=0;whiteSpace=wrap;html=1;strokeColor=#000000;fontColor=#000000;fillColor=#FFFFFF;" parent="1" vertex="1">
                    <mxGeometry x="220" y="240" width="270" height="50" as="geometry"/>
                </mxCell>
                <mxCell id="15" style="edgeStyle=orthogonalEdgeStyle;html=1;entryX=0;entryY=0.5;entryDx=0;entryDy=0;strokeColor=#000000;fontColor=#000000;curved=1;exitX=1;exitY=0.75;exitDx=0;exitDy=0;dashed=1;" parent="1" source="3" target="5" edge="1">
                    <mxGeometry relative="1" as="geometry"/>
                </mxCell>
                <mxCell id="3" value="通信" style="rounded=0;whiteSpace=wrap;html=1;fontColor=#000000;fillColor=#FFCC99;strokeColor=#FFB366;" parent="1" vertex="1">
                    <mxGeometry x="179" y="140" width="160" height="40" as="geometry"/>
                </mxCell>
                <mxCell id="4" value="" style="endArrow=classic;html=1;fontColor=#000000;strokeColor=#000000;exitX=1;exitY=0.5;exitDx=0;exitDy=0;" parent="1" source="3" edge="1">
                    <mxGeometry width="50" height="50" relative="1" as="geometry">
                        <mxPoint x="390" y="300" as="sourcePoint"/>
                        <mxPoint x="480" y="160" as="targetPoint"/>
                    </mxGeometry>
                </mxCell>
                <mxCell id="17" style="edgeStyle=orthogonalEdgeStyle;curved=1;html=1;entryX=0.069;entryY=-0.025;entryDx=0;entryDy=0;entryPerimeter=0;dashed=1;strokeColor=#000000;fontColor=#000000;" parent="1" source="5" target="16" edge="1">
                    <mxGeometry relative="1" as="geometry"/>
                </mxCell>
                <mxCell id="5" value="渲染任务" style="rounded=0;whiteSpace=wrap;html=1;fontColor=#000000;fillColor=#99CCFF;strokeColor=#9999FF;" parent="1" vertex="1">
                    <mxGeometry x="240" y="245" width="90" height="40" as="geometry"/>
                </mxCell>
                <mxCell id="6" value="消息队列" style="rounded=1;whiteSpace=wrap;html=1;strokeColor=#99CCFF;fontColor=#000000;fillColor=#FFFFFF;" parent="1" vertex="1">
                    <mxGeometry x="420" y="226" width="60" height="30" as="geometry"/>
                </mxCell>
                <mxCell id="10" value="渲染主线程" style="rounded=0;whiteSpace=wrap;html=1;fontColor=#000000;fillColor=#99CCFF;strokeColor=#9999FF;" parent="1" vertex="1">
                    <mxGeometry x="69" y="340" width="110" height="60" as="geometry"/>
                </mxCell>
                <mxCell id="14" value="" style="endArrow=classic;html=1;fontColor=#000000;strokeColor=#000000;exitX=1;exitY=0.5;exitDx=0;exitDy=0;" parent="1" edge="1">
                    <mxGeometry width="50" height="50" relative="1" as="geometry">
                        <mxPoint x="340" y="372" as="sourcePoint"/>
                        <mxPoint x="481" y="372" as="targetPoint"/>
                    </mxGeometry>
                </mxCell>
                <mxCell id="16" value="渲染" style="rounded=0;whiteSpace=wrap;html=1;fontColor=#000000;fillColor=#99CCFF;strokeColor=#9999FF;" parent="1" vertex="1">
                    <mxGeometry x="179" y="350" width="160" height="40" as="geometry"/>
                </mxCell>
                <mxCell id="20" value="html" style="rounded=1;whiteSpace=wrap;html=1;strokeColor=none;fontColor=#000000;fillColor=#FFFFFF;" parent="1" vertex="1">
                    <mxGeometry x="257.5" y="196" width="55" height="30" as="geometry"/>
                </mxCell>
            </root>
        </mxGraphModel>
    </diagram>
</mxfile>